<svg width="89" height="41" viewBox="0 0 89 41" fill="none" xmlns="http://www.w3.org/2000/svg">
<path fill-rule="evenodd" clip-rule="evenodd" d="M69.079 7.65997L62.1233 20.8367C62.0702 20.9955 61.9109 21.0484 61.8047 21.0484H58.4596C58.2472 21.0484 58.088 20.8367 58.1941 20.625L69.1321 0.198445C69.2383 -0.0661482 69.6631 -0.0661482 69.8224 0.198445L80.7603 20.625C80.8665 20.7838 80.7072 21.0484 80.4948 21.0484H77.1497C76.9904 21.0484 76.8311 20.9425 76.778 20.8367L69.8224 7.65997C69.6631 7.39537 69.2383 7.39537 69.079 7.65997ZM51.2385 16.4445L58.1942 3.26774C58.2472 3.10899 58.4065 3.05607 58.5127 3.05607H61.8578C62.0702 3.05607 62.2295 3.26774 62.1233 3.47942L51.1854 23.906C51.0792 24.1706 50.6544 24.1706 50.4951 23.906L39.5572 3.47942C39.451 3.32066 39.6103 3.05607 39.8226 3.05607H43.1677C43.327 3.05607 43.4863 3.16191 43.5394 3.26774L50.4951 16.4445C50.6544 16.7091 51.0792 16.7091 51.2385 16.4445ZM14.6547 12.7402C16.0883 11.9993 16.991 10.4647 16.991 8.50668C16.991 5.22573 14.4423 3.00315 10.7787 3.00315H0.424775C0.212387 3.00315 0 3.16191 0 3.4265V23.6943C0 23.906 0.159291 24.1177 0.424775 24.1177H10.407C15.3981 24.1177 17.9998 22.0009 17.9998 17.8204C17.9467 13.6927 14.6547 12.7402 14.6547 12.7402ZM3.87607 6.07237H10.0884C12.3716 6.07237 13.5397 7.02491 13.5397 8.82414C13.5397 10.6234 12.3716 11.5759 10.0884 11.5759H3.92917C3.71678 11.5759 3.50439 11.4171 3.50439 11.1526V6.4428C3.50439 6.28405 3.66368 6.07237 3.87607 6.07237ZM3.87607 21.0484H10.1415C13.168 21.0484 14.4423 20.0958 14.4423 17.7674C14.4423 15.439 13.1149 14.5923 10.1415 14.5923H3.87607C3.61059 14.5923 3.4513 14.804 3.4513 15.0156V20.625C3.4513 20.8896 3.66369 21.0484 3.87607 21.0484ZM38.3359 8.50668C38.3359 10.4647 37.4333 11.9993 35.9997 12.7402C35.9997 12.7402 39.3448 13.6927 39.3448 17.8204C39.3448 22.0009 36.743 24.1177 31.7519 24.1177H21.7697C21.5042 24.1177 21.3449 23.906 21.3449 23.6943V3.4265C21.3449 3.16191 21.5573 3.00315 21.7697 3.00315H32.1236C35.7873 3.00315 38.3359 5.22573 38.3359 8.50668ZM31.4333 6.07237H25.2741C25.0617 6.07237 24.8493 6.28405 24.8493 6.4428V11.1526C24.8493 11.4171 25.0617 11.5759 25.2741 11.5759H31.4333C33.7165 11.5759 34.8846 10.6234 34.8846 8.82414C34.8846 7.02491 33.7165 6.07237 31.4333 6.07237ZM31.5395 21.0484H25.2741C25.0617 21.0484 24.8493 20.8896 24.8493 20.625V15.0156C24.8493 14.804 25.0086 14.5923 25.2741 14.5923H31.5395C34.5129 14.5923 35.8404 15.439 35.8404 17.7674C35.8404 20.0958 34.5129 21.0484 31.5395 21.0484Z" fill="white"/>
<path d="M60.4536 37.1898C62.1491 37.1898 63.3863 36.2848 63.3863 34.8872C63.3863 33.501 62.5157 32.9168 60.7515 32.3554C58.9758 31.7941 58.403 31.4619 58.403 30.5111C58.403 29.755 59.0904 29.1249 60.236 29.1249C61.267 29.1249 62.0689 29.5488 62.8365 30.2361L63.2489 29.5946C62.4699 28.8958 61.5305 28.3917 60.236 28.3917C58.6894 28.3917 57.6011 29.354 57.6011 30.5683C57.6011 31.9659 58.5291 32.4586 60.3505 33.0313C62.1491 33.5927 62.5844 34.0509 62.5844 34.933C62.5844 35.8724 61.7482 36.4567 60.4422 36.4567C59.2737 36.4567 58.2541 35.9526 57.5438 35.2309L57.0742 35.838C57.9219 36.6858 59.0446 37.1898 60.4536 37.1898ZM67.71 36.4681C66.9882 36.4681 66.4269 36.1244 65.8083 35.4944V32.5387C66.4154 31.9316 66.9424 31.5535 67.687 31.5535C68.6952 31.5535 69.52 32.3554 69.52 34.0166C69.52 35.7464 68.7181 36.4681 67.71 36.4681ZM65.8083 39.2633V36.2046C66.3467 36.7545 66.9768 37.1326 67.8016 37.1326C69.1992 37.1326 70.3104 36.113 70.3104 34.0051C70.3104 31.8972 69.2107 30.8776 67.8245 30.8776C66.9195 30.8776 66.2894 31.3244 65.8083 31.8514L65.7281 31.0037H65.0178V39.3779L65.8083 39.2633ZM73.2089 36.4796C72.5215 36.4796 72.1091 36.1473 72.1091 35.5173C72.1091 34.7383 72.7621 34.1082 75.4199 33.65V35.5287C74.8012 36.1244 74.0566 36.4796 73.2089 36.4796ZM73.037 37.1326C73.942 37.1326 74.721 36.7889 75.4199 36.1703L75.5 37.0294H76.1989V32.8022C76.1989 31.5994 75.5802 30.8776 74.2399 30.8776C73.0141 30.8776 72.2237 31.3359 71.5019 32.0003L71.9487 32.4929C72.5903 31.9201 73.2432 31.5421 74.1826 31.5421C74.9731 31.5421 75.4199 31.9545 75.4199 32.7793V33.0886C72.3497 33.5583 71.3301 34.4175 71.3301 35.6089C71.3301 36.5483 71.9602 37.1326 73.037 37.1326ZM78.7521 37.0294V33.1001C79.2103 32.1492 80.0122 31.5994 81.0089 31.5994C81.0318 31.5994 81.2724 31.5994 81.2953 31.6108L81.2266 30.8776H81.1464C79.9664 30.8776 79.2332 31.4504 78.775 32.1836H78.7521L78.6719 31.0037H77.9616V37.0294H78.7521ZM83.2606 37.0294V35.1278L84.5666 33.7187L86.5026 37.0982L87.2816 36.9607L85.0935 33.123L87.064 31.0037H86.136L83.2606 34.1769V28.4948L82.4701 28.6094V37.0294H83.2606Z" fill="white"/>
</svg>
